HIERARCHY
ROOT Hips
{
	OFFSET 0.000000 83.214638 0.000000
	CHANNELS 6 Xposition Yposition Zposition Xrotation Yrotation Zrotation
	JOINT Pelvis
	{
		OFFSET 0.000000 0.000000 0.000000
		CHANNELS 3 Xrotation Yrotation Zrotation
		JOINT LeftUpLeg
		{
			OFFSET 8.479700 -4.795502 -0.379100
			CHANNELS 3 Xrotation Yrotation Zrotation
			JOINT LeftLeg
			{
				OFFSET 0.024144 -32.555107 0.112900
				CHANNELS 3 Xrotation Yrotation Zrotation
				JOINT LeftFoot
				{
					OFFSET -0.024144 -32.638630 -3.012600
					CHANNELS 3 Xrotation Yrotation Zrotation
					JOINT LeftToeBase
					{
						OFFSET 0.970200 -13.225400 11.864200
						CHANNELS 3 Xrotation Yrotation Zrotation
						End Site
						{
							OFFSET 0.000000 12.319262 0.000000
						}
					}
					JOINT LFootTongue
					{
						OFFSET 1.142400 -1.059800 6.665200
						CHANNELS 3 Xrotation Yrotation Zrotation
						End Site
						{
							OFFSET 0.000000 12.319262 0.000000
						}
					}
				}
				JOINT LeftPantLeg
				{
					OFFSET 0.918482 -16.533964 -2.284700
					CHANNELS 3 Xrotation Yrotation Zrotation
					End Site
					{
						OFFSET 0.350399 24.744368 0.000000
					}
				}
			}
		}
		JOINT RightUpLeg
		{
			OFFSET -8.479700 -4.795502 -0.379100
			CHANNELS 3 Xrotation Yrotation Zrotation
			JOINT RightLeg
			{
				OFFSET -0.023144 -32.555092 0.112900
				CHANNELS 3 Xrotation Yrotation Zrotation
				JOINT RightFoot
				{
					OFFSET 0.023144 -32.638641 -3.012700
					CHANNELS 3 Xrotation Yrotation Zrotation
					JOINT RightToeBase
					{
						OFFSET -0.970200 -13.225400 11.864200
						CHANNELS 3 Xrotation Yrotation Zrotation
						End Site
						{
							OFFSET 0.000000 12.319244 0.000000
						}
					}
					JOINT RFootTongue
					{
						OFFSET -1.142200 -1.059800 6.665200
						CHANNELS 3 Xrotation Yrotation Zrotation
						End Site
						{
							OFFSET 0.000000 12.319243 0.000000
						}
					}
				}
				JOINT RightPantLeg
				{
					OFFSET -0.919482 -16.533978 -2.284800
					CHANNELS 3 Xrotation Yrotation Zrotation
					End Site
					{
						OFFSET -0.350400 24.744419 0.000000
					}
				}
			}
		}
	}
	JOINT Spine
	{
		OFFSET 0.000000 7.722000 1.166200
		CHANNELS 3 Xrotation Yrotation Zrotation
		JOINT Spine1
		{
			OFFSET 0.000000 12.024101 0.248800
			CHANNELS 3 Xrotation Yrotation Zrotation
			JOINT Spine2
			{
				OFFSET 0.000000 11.502998 -0.491200
				CHANNELS 3 Xrotation Yrotation Zrotation
				JOINT Neck
				{
					OFFSET 0.000000 18.430702 -3.123100
					CHANNELS 3 Xrotation Yrotation Zrotation
					JOINT Head
					{
						OFFSET 0.000000 9.051102 1.034000
						CHANNELS 3 Xrotation Yrotation Zrotation
						JOINT HairB
						{
							OFFSET 0.208400 24.786102 24.822300
							CHANNELS 3 Xrotation Yrotation Zrotation
							End Site
							{
								OFFSET 0.000000 32.263779 0.000000
							}
						}
						JOINT HairA
						{
							OFFSET -7.081100 24.428299 23.196600
							CHANNELS 3 Xrotation Yrotation Zrotation
							End Site
							{
								OFFSET 0.000000 32.263779 0.000000
							}
						}
						JOINT Hat
						{
							OFFSET 16.728800 15.048294 -15.439601
							CHANNELS 3 Xrotation Yrotation Zrotation
							End Site
							{
								OFFSET 0.000000 32.263779 0.000000
							}
						}
					}
				}
				JOINT LeftShoulder
				{
					OFFSET 6.197800 13.665199 -4.064700
					CHANNELS 3 Xrotation Yrotation Zrotation
					JOINT LeftArm
					{
						OFFSET 7.778100 -0.187103 -1.709300
						CHANNELS 3 Xrotation Yrotation Zrotation
						JOINT LeftForeArm
						{
							OFFSET 22.049376 0.000000 0.000000
							CHANNELS 3 Xrotation Yrotation Zrotation
							JOINT LeftHand
							{
								OFFSET 23.009392 0.000000 0.000000
								CHANNELS 3 Xrotation Yrotation Zrotation
								JOINT LeftHandThumb1
								{
									OFFSET 3.507191 -2.063065 3.133727
									CHANNELS 3 Xrotation Yrotation Zrotation
									JOINT LeftHandThumb2
									{
										OFFSET 3.101337 -1.790558 1.790558
										CHANNELS 3 Xrotation Yrotation Zrotation
										JOINT LeftHandThumb3
										{
											OFFSET 3.058640 -1.765907 1.765906
											CHANNELS 3 Xrotation Yrotation Zrotation
											End Site
											{
												OFFSET -0.415260 3.926476 -0.049563
											}
										}
									}
								}
								JOINT LeftHandIndex1
								{
									OFFSET 11.334419 -0.901459 3.706815
									CHANNELS 3 Xrotation Yrotation Zrotation
									JOINT LeftHandIndex2
									{
										OFFSET 3.283112 0.000000 0.000000
										CHANNELS 3 Xrotation Yrotation Zrotation
										JOINT LeftHandIndex3
										{
											OFFSET 3.323853 0.000000 0.000000
											CHANNELS 3 Xrotation Yrotation Zrotation
											End Site
											{
												OFFSET -1.135597 3.097809 0.402452
											}
										}
									}
								}
								JOINT LeftHandMiddle1
								{
									OFFSET 11.335861 0.000000 0.000000
									CHANNELS 3 Xrotation Yrotation Zrotation
									JOINT LeftHandMiddle2
									{
										OFFSET 3.410492 0.000000 0.000000
										CHANNELS 3 Xrotation Yrotation Zrotation
										JOINT LeftHandMiddle3
										{
											OFFSET 3.312172 0.000000 0.000000
											CHANNELS 3 Xrotation Yrotation Zrotation
											End Site
											{
												OFFSET -1.150200 3.080154 0.400270
											}
										}
									}
								}
								JOINT LeftHandRing1
								{
									OFFSET 11.514786 -0.013176 -3.003090
									CHANNELS 3 Xrotation Yrotation Zrotation
									JOINT LeftHandRing2
									{
										OFFSET 3.053307 0.000000 0.000000
										CHANNELS 3 Xrotation Yrotation Zrotation
										JOINT LeftHandRing3
										{
											OFFSET 3.295807 0.000000 0.000000
											CHANNELS 3 Xrotation Yrotation Zrotation
											End Site
											{
												OFFSET -1.281006 3.013344 0.375733
											}
										}
									}
								}
								JOINT LeftHandPinky1
								{
									OFFSET 10.518692 -0.960396 -5.730441
									CHANNELS 3 Xrotation Yrotation Zrotation
									JOINT LeftHandPinky2
									{
										OFFSET 2.861649 0.000000 0.000000
										CHANNELS 3 Xrotation Yrotation Zrotation
										JOINT LeftHandPinky3
										{
											OFFSET 2.863380 0.000000 0.000000
											CHANNELS 3 Xrotation Yrotation Zrotation
											End Site
											{
												OFFSET -0.843597 2.711159 0.369971
											}
										}
									}
								}
							}
							JOINT LSleeve
							{
								OFFSET 6.676277 -0.344902 -1.011730
								CHANNELS 3 Xrotation Yrotation Zrotation
								End Site
								{
									OFFSET 0.000000 14.885353 0.000000
								}
							}
						}
					}
				}
				JOINT RightShoulder
				{
					OFFSET -6.197800 13.665199 -4.064700
					CHANNELS 3 Xrotation Yrotation Zrotation
					JOINT RightArm
					{
						OFFSET -7.778100 -0.187103 -1.709300
						CHANNELS 3 Xrotation Yrotation Zrotation
						JOINT RightForeArm
						{
							OFFSET -22.049376 0.000000 0.000000
							CHANNELS 3 Xrotation Yrotation Zrotation
							JOINT RightHand
							{
								OFFSET -23.009392 0.000000 0.000000
								CHANNELS 3 Xrotation Yrotation Zrotation
								JOINT RightHandThumb1
								{
									OFFSET -3.507191 -2.063065 3.133727
									CHANNELS 3 Xrotation Yrotation Zrotation
									JOINT RightHandThumb2
									{
										OFFSET -3.101337 -1.790558 1.790558
										CHANNELS 3 Xrotation Yrotation Zrotation
										JOINT RightHandThumb3
										{
											OFFSET -3.058640 -1.765907 1.765906
											CHANNELS 3 Xrotation Yrotation Zrotation
											End Site
											{
												OFFSET 0.415260 3.926476 -0.049563
											}
										}
									}
								}
								JOINT RightHandIndex1
								{
									OFFSET -11.334419 -0.901459 3.706815
									CHANNELS 3 Xrotation Yrotation Zrotation
									JOINT RightHandIndex2
									{
										OFFSET -3.283112 0.000000 0.000000
										CHANNELS 3 Xrotation Yrotation Zrotation
										JOINT RightHandIndex3
										{
											OFFSET -3.323853 0.000000 0.000000
											CHANNELS 3 Xrotation Yrotation Zrotation
											End Site
											{
												OFFSET 1.135597 3.097809 0.402452
											}
										}
									}
								}
								JOINT RightHandMiddle1
								{
									OFFSET -11.335861 0.000000 0.000000
									CHANNELS 3 Xrotation Yrotation Zrotation
									JOINT RightHandMiddle2
									{
										OFFSET -3.410492 0.000000 0.000000
										CHANNELS 3 Xrotation Yrotation Zrotation
										JOINT RightHandMiddle3
										{
											OFFSET -3.312172 0.000000 0.000000
											CHANNELS 3 Xrotation Yrotation Zrotation
											End Site
											{
												OFFSET 1.150200 3.080154 0.400270
											}
										}
									}
								}
								JOINT RightHandRing1
								{
									OFFSET -11.514786 -0.013176 -3.003090
									CHANNELS 3 Xrotation Yrotation Zrotation
									JOINT RightHandRing2
									{
										OFFSET -3.053307 0.000000 0.000000
										CHANNELS 3 Xrotation Yrotation Zrotation
										JOINT RightHandRing3
										{
											OFFSET -3.295807 0.000000 0.000000
											CHANNELS 3 Xrotation Yrotation Zrotation
											End Site
											{
												OFFSET 1.281006 3.013344 0.375733
											}
										}
									}
								}
								JOINT RightHandPinky1
								{
									OFFSET -10.518692 -0.960396 -5.730441
									CHANNELS 3 Xrotation Yrotation Zrotation
									JOINT RightHandPinky2
									{
										OFFSET -2.861649 0.000000 0.000000
										CHANNELS 3 Xrotation Yrotation Zrotation
										JOINT RightHandPinky3
										{
											OFFSET -2.863380 0.000000 0.000000
											CHANNELS 3 Xrotation Yrotation Zrotation
											End Site
											{
												OFFSET 0.843597 2.711159 0.369971
											}
										}
									}
								}
							}
							JOINT RSleeve
							{
								OFFSET -6.676277 -0.344902 -1.011730
								CHANNELS 3 Xrotation Yrotation Zrotation
								End Site
								{
									OFFSET 0.000000 14.885353 0.000000
								}
							}
						}
					}
				}
				JOINT Backpack
				{
					OFFSET 0.000000 -2.471497 36.677502
					CHANNELS 3 Xrotation Yrotation Zrotation
					End Site
					{
						OFFSET 0.000000 20.427315 0.000000
					}
				}
				JOINT Hood
				{
					OFFSET 0.000000 18.754097 -10.431000
					CHANNELS 3 Xrotation Yrotation Zrotation
					JOINT Hood1
					{
						OFFSET 0.000000 -5.011002 -7.685901
						CHANNELS 3 Xrotation Yrotation Zrotation
						End Site
						{
							OFFSET 0.000000 9.175140 0.000000
						}
					}
				}
				JOINT LHoodieString
				{
					OFFSET 5.250500 16.397697 3.089900
					CHANNELS 3 Xrotation Yrotation Zrotation
					JOINT LHoodieString1
					{
						OFFSET 0.257700 -6.364304 3.694600
						CHANNELS 3 Xrotation Yrotation Zrotation
						JOINT LHoodieString2
						{
							OFFSET 0.000000 -9.643799 2.679100
							CHANNELS 3 Xrotation Yrotation Zrotation
							End Site
							{
								OFFSET 0.000000 10.009018 0.000000
							}
						}
					}
				}
				JOINT RHoodieString
				{
					OFFSET -5.250500 16.397697 3.089900
					CHANNELS 3 Xrotation Yrotation Zrotation
					JOINT RHoodieString1
					{
						OFFSET -0.257700 -6.364304 3.694600
						CHANNELS 3 Xrotation Yrotation Zrotation
						JOINT RHoodieString2
						{
							OFFSET 0.000000 -9.643799 2.679100
							CHANNELS 3 Xrotation Yrotation Zrotation
							End Site
							{
								OFFSET 0.000000 10.009018 0.000000
							}
						}
					}
				}
			}
			JOINT LBackpack_Strap
			{
				OFFSET 15.223200 -7.719803 -6.610900
				CHANNELS 3 Xrotation Yrotation Zrotation
				End Site
				{
					OFFSET 0.000000 16.040596 0.000000
				}
			}
			JOINT RBackpack_Strap
			{
				OFFSET -15.223000 -7.719803 -6.610900
				CHANNELS 3 Xrotation Yrotation Zrotation
				End Site
				{
					OFFSET 0.000000 16.040596 0.000000
				}
			}
		}
	}
	JOINT BoyFacialAnim_Joint
	{
		OFFSET 1.000000 -82.208099 -1.550900
		CHANNELS 3 Xrotation Yrotation Zrotation
		End Site
		{
			OFFSET 0.000000 30.012791 0.000000
		}
	}
}
MOTION
Frames: 4
Frame Time: 0.033333
-0.203679 83.426842 -0.743911 -3.422177 3.913428 -3.551081 -0.000000 0.000000 -0.000000 -26.881651 -10.161539 -0.573509 51.730176 -1.193990 -0.092804 16.760857 2.991798 10.551329 -0.000001 -0.000000 -0.000001 -0.000001 -0.000000 -0.000000 -0.000003 0.000000 0.000000 -12.716029 -10.533990 7.955707 28.556527 0.236976 0.011114 14.971771 -0.488327 -7.556989 0.000000 0.000000 -0.000000 0.000000 0.000000 -0.000000 0.000001 -0.000000 0.000000 7.485103 -0.349346 -0.421454 -2.114715 -0.634070 1.955415 -2.107416 -0.526125 1.991270 -6.843023 -2.682122 0.508893 2.526785 0.702883 0.466853 0.000000 0.000000 0.000000 0.000000 0.000000 0.000000 0.000000 0.000000 0.000000 1.091374 1.577354 -3.543023 -1.207967 1.492942 -78.012693 20.698704 -13.799208 -0.079206 -0.026795 -3.262857 -0.409751 10.557730 -2.873386 25.085804 -5.464163 26.111904 -7.055745 0.000000 -0.000000 0.000004 2.372196 3.636013 -10.145431 -2.155738 2.456272 -20.339692 -0.000001 -0.000001 -0.000000 -1.984308 5.666062 -18.668032 0.262856 5.090462 -32.022434 -0.000000 -0.000002 -0.000000 -4.974568 10.107104 -16.316157 4.008930 4.056158 -38.803756 -0.000000 0.000001 0.000002 -6.472576 11.328371 -26.083992 10.736426 2.575061 -37.642521 -0.000003 0.000000 -0.000002 0.000002 0.000001 0.000001 0.487481 5.285007 4.297993 -7.282524 4.832132 74.584826 13.988542 13.383122 -4.466974 0.106870 3.530073 -2.699128 15.566071 -0.729103 -16.762770 -6.579403 -24.370076 7.035605 -0.000002 0.000004 -0.000001 2.252314 -2.297202 4.747772 -2.162970 -2.444728 14.947823 -0.000004 0.000001 0.000002 -1.987006 -5.675769 8.743276 0.263313 -5.087433 22.099613 -0.000000 0.000000 -0.000000 -4.977268 -10.114506 7.762294 4.005863 -4.045826 30.251027 -0.000002 0.000000 -0.000001 -6.472720 -11.324494 16.980552 10.704488 -2.553581 28.536117 -0.000001 0.000000 -0.000001 -0.000000 -0.000000 -0.000000 -0.000000 -0.000000 0.000000 -0.000000 -0.000000 0.000000 -0.000000 -0.000000 0.000000 -0.000000 -0.000000 0.000000 -0.000000 -0.000000 0.000000 0.000000 -0.000000 0.000000 -0.000000 -0.000000 0.000000 -0.000000 -0.000000 0.000000 0.000000 -0.000000 0.000000 -0.000000 0.000000 -0.000000 -0.000000 0.000000 -0.000000 -0.000000 0.000000 -0.000000 
0.069859 83.683075 1.250988 -3.022559 2.856941 -3.133480 -0.000000 0.000000 -0.000000 -29.317173 -11.032531 -1.249393 44.298964 3.162873 0.254861 21.404225 3.997527 10.991247 0.000001 0.000000 0.000000 0.000001 0.000000 0.000000 0.000000 -0.000000 -0.000000 -10.573766 -11.624199 7.012665 27.373892 2.880638 0.220378 13.540780 -0.497438 -7.811105 -0.000000 -0.000000 -0.000000 -0.000000 -0.000000 -0.000000 0.000000 -0.000000 0.000000 8.063237 0.087561 0.013638 -2.578370 -0.208049 1.578324 -2.577508 -0.123594 1.592141 -6.198933 -2.322079 -0.401223 2.395510 0.706609 0.582821 -0.000000 0.000000 0.000000 -0.000000 0.000000 0.000000 -0.000000 0.000000 0.000000 1.097327 1.878401 -3.781184 0.321225 1.378386 -77.382437 19.967394 -14.583285 -0.208710 0.013198 -3.243773 0.039458 10.611415 -2.847610 24.968805 -5.473071 26.092327 -7.057085 0.000001 -0.000001 -0.000001 2.364122 3.559210 -10.122183 -2.155797 2.455134 -20.282783 -0.000003 -0.000001 -0.000002 -1.980631 5.660889 -18.597393 0.259668 5.090178 -31.917440 -0.000001 -0.000000 0.000002 -4.969462 10.099473 -16.260737 4.008952 4.053956 -38.713266 -0.000001 -0.000001 -0.000001 -6.463838 11.323985 -26.022937 10.734884 2.573566 -37.546270 -0.000002 -0.000000 -0.000002 0.000002 0.000000 0.000001 0.562456 6.496383 3.594060 -8.757038 5.955650 74.387884 13.513328 14.327852 -4.191445 0.083934 4.490811 -2.608074 15.507781 -0.696931 -16.909675 -6.564939 -24.396843 7.036311 0.000001 -0.000002 -0.000004 2.268406 -2.407277 4.802770 -2.162897 -2.442279 14.825586 0.000001 0.000003 -0.000003 -1.974045 -5.685483 8.864488 0.259507 -5.086394 21.971204 0.000006 0.000000 0.000001 -4.968707 -10.122506 7.862250 4.006555 -4.041429 30.069549 -0.000002 0.000000 0.000002 -6.466323 -11.336089 17.087255 10.704225 -2.553281 28.517659 -0.000003 0.000001 -0.000001 -0.000000 -0.000001 0.000001 0.000000 -0.000000 0.000000 0.000000 -0.000000 0.000000 0.000000 -0.000000 0.000000 0.000000 -0.000000 0.000000 0.000000 -0.000000 0.000000 0.000000 0.000000 0.000000 0.000000 -0.000000 0.000000 0.000000 -0.000000 0.000000 0.000000 0.000000 0.000000 0.000000 0.000000 0.000000 0.000000 0.000000 0.000000 -0.000000 0.000000 -0.000000 
0.394741 83.890602 3.238157 -2.473213 1.258125 -2.544881 -0.000000 0.000000 -0.000000 -30.162624 -9.967904 -1.273029 34.232468 3.991632 0.323732 25.166103 4.874027 10.815225 0.000000 -0.000000 -0.000001 0.000000 -0.000000 -0.000000 -0.000000 0.000000 0.000000 -8.958828 -13.019340 5.630229 26.526865 6.966206 0.599366 12.284867 -1.641789 -8.125948 0.000002 0.000000 -0.000000 0.000002 0.000000 -0.000000 -0.000000 -0.000000 -0.000000 8.728876 0.639896 0.407885 -3.142303 0.310971 1.152558 -3.144157 0.365745 1.131883 -5.869638 -1.868020 -1.513805 2.449664 0.730970 0.719150 0.000000 0.000000 -0.000000 0.000000 0.000000 -0.000000 0.000000 0.000000 -0.000000 1.113318 2.598667 -4.396366 1.714178 0.936429 -76.406615 19.570729 -15.012577 -0.389247 0.060618 -2.983050 0.532768 10.764084 -2.779859 24.645274 -5.501987 26.038394 -7.054387 0.000000 -0.000001 -0.000003 2.341574 3.344725 -10.054774 -2.155982 2.451960 -20.123873 0.000001 0.000000 -0.000002 -1.966566 5.642527 -18.398204 0.255558 5.089069 -31.624158 0.000001 0.000001 0.000000 -4.947991 10.081751 -16.103925 4.009022 4.047781 -38.460642 -0.000002 -0.000001 -0.000006 -6.439706 11.307879 -25.850456 10.730625 2.569389 -37.277205 -0.000002 -0.000001 -0.000000 0.000000 0.000001 0.000000 0.667421 7.604361 2.848640 -10.255548 6.169076 74.470748 14.496484 15.278003 -4.581658 0.036400 5.741707 -2.218444 15.346554 -0.605060 -17.312516 -6.522056 -24.468311 7.036996 0.000002 0.000001 0.000002 2.318148 -2.708573 4.954038 -2.162876 -2.435566 14.490111 -0.000001 -0.000002 0.000003 -1.946998 -5.720885 9.195693 0.253405 -5.083311 21.619388 0.000002 0.000001 0.000001 -4.946222 -10.150064 8.135816 4.008582 -4.038388 29.572110 0.000002 0.000000 0.000002 -6.444430 -11.363583 17.381723 10.700524 -2.553377 28.467088 -0.000003 -0.000001 -0.000002 -0.000001 -0.000000 0.000002 0.000000 0.000000 -0.000000 0.000000 0.000000 -0.000000 0.000000 0.000000 -0.000000 0.000000 0.000000 -0.000000 0.000000 0.000000 -0.000000 -0.000000 0.000000 -0.000000 0.000000 0.000000 -0.000000 0.000000 0.000000 -0.000000 -0.000000 0.000000 -0.000000 -0.000000 -0.000000 0.000000 -0.000000 -0.000000 0.000000 -0.000000 0.000000 -0.000000 
0.736556 83.907455 5.326845 -2.085090 -0.533619 -2.093267 0.000000 0.000000 0.000000 -29.225478 -5.946985 -0.305529 21.936577 3.242557 0.268079 30.201864 5.093767 9.793307 -0.000000 0.000000 -0.000001 -0.000000 0.000000 -0.000001 -0.000000 -0.000000 -0.000000 -7.437844 -14.167960 4.369149 26.341676 9.524862 0.908359 10.295522 -1.617635 -8.968906 0.000002 -0.000000 -0.000000 0.000002 -0.000000 -0.000000 -0.000002 -0.000000 -0.000000 9.421697 1.263290 1.105638 -3.608535 0.849382 0.642394 -3.603913 0.870735 0.577580 -5.895190 -1.388732 -2.612429 2.374985 0.799429 0.772927 -0.000000 -0.000000 -0.000000 -0.000000 -0.000000 -0.000000 -0.000000 -0.000000 -0.000000 1.149704 3.622477 -5.407296 2.562443 0.585638 -75.088743 19.204909 -14.653122 -0.714971 0.124520 -2.783510 1.260445 11.003492 -2.675684 24.151843 -5.553187 25.959182 -7.052486 0.000000 -0.000001 -0.000002 2.307067 3.015430 -9.946615 -2.156483 2.447071 -19.878772 -0.000000 0.000001 -0.000003 -1.945560 5.614555 -18.086752 0.255219 5.086970 -31.172707 0.000002 0.000000 -0.000003 -4.915756 10.055638 -15.857717 4.009223 4.042147 -38.071485 0.000002 0.000001 -0.000000 -6.403485 11.284141 -25.580131 10.724064 2.562902 -36.862558 0.000000 0.000001 -0.000000 0.000000 0.000000 0.000000 0.762792 8.661341 2.218652 -11.742690 5.532321 74.592346 16.363810 16.669507 -5.301878 0.175284 6.818276 -3.003753 15.103587 -0.466653 -17.917102 -6.453642 -24.573388 7.036870 0.000002 -0.000002 0.000005 2.395934 -3.161169 5.182338 -2.163062 -2.434177 13.985021 0.000004 0.000000 0.000002 -1.905803 -5.773936 9.693871 0.252839 -5.078107 21.090864 -0.000001 0.000002 0.000000 -4.912148 -10.191523 8.547335 4.011857 -4.034387 28.824003 -0.000000 0.000001 0.000001 -6.411254 -11.405079 17.824610 10.696770 -2.553570 28.391971 0.000003 -0.000003 -0.000000 0.000001 0.000003 -0.000000 -0.000000 -0.000000 -0.000000 -0.000000 -0.000000 -0.000000 -0.000000 -0.000000 -0.000000 -0.000000 -0.000000 -0.000000 -0.000000 -0.000000 -0.000000 -0.000000 -0.000000 -0.000000 -0.000000 -0.000000 -0.000000 -0.000000 -0.000000 -0.000000 -0.000000 -0.000000 -0.000000 -0.000000 -0.000000 0.000000 -0.000000 -0.000000 0.000000 0.000000 0.000000 0.000000 
